<?xml-stylesheet type="text/css" href="../css/style.css"?>
<svg version="1.1" id="Layer_1" xmlns="http://www.w3.org/2000/svg" xmlns:xlink="http://www.w3.org/1999/xlink" x="0px" y="0px"
	 viewBox="0 0 92.5 80" xml:space="preserve">
<g>
	<path class="brain" d="M61.7,75.1l-0.5-5.7c2-0.1,3.8-1.1,4.9-2.6c1.4,0.8,3,1.3,4.7,1.3c4.9,0,9-3.8,9.4-8.6c4.1-0.4,7.5-3.3,8.4-7.3
		c1.6-2.4,2.5-5.3,2.5-8.4c0-1.3-0.2-2.7-0.5-3.9c0.3-1.2,0.5-2.6,0.5-3.9c0-6.3-3.7-11.7-9.1-14.2c-1.2-5.3-5.1-9.6-10.2-11.3
		c-2.8-4.2-7.6-7-13-7c-1.1,0-2.2,0.1-3.2,0.3c-1-1.8-2.9-2.9-5-2.9c-1.9,0-3.5,0.9-4.5,2.2c-1.3-0.7-2.8-1.1-4.4-1.1
		c-2.4,0-4.6,1-6.2,2.5C34.3,4.2,33.2,4,32,4c-3.1,0-5.8,1.6-7.4,4c-0.7-0.1-1.4-0.1-2-0.1c-5.8,0-10.9,3.2-13.6,7.9
		C4.2,18.4,1,23.5,1,29.3c0,2.8,0.8,5.5,2.1,7.8c0.9,7.7,7.5,13.7,15.4,13.7c0.2,0,0.3,0,0.5,0c2.6,5,7.8,8.4,13.8,8.4
		c3.2,0,6.2-1,8.7-2.6c1.8,3.7,4.9,6.5,8.8,7.9L58.7,77L61.7,75.1z" />
</g>
</svg>
