<svg version="1" xmlns="http://www.w3.org/2000/svg" width="992" height="992" viewBox="0 0 744.000000 744.000000"><path d="M399.7 58.6c-.1.2-1.4.5-2.9.8-5.3.9-15.7 6.7-20.9 11.6-3.2 3-5.7 4.6-6.3 4.1-1.9-1.5-12.8-5.2-19.3-6.5-6-1.3-22.4-1.4-28.3-.2-9.6 1.9-23.7 8.6-31.7 15.2l-4.2 3.5-7.8-1.7c-30.6-6.4-58.3 2.7-76 25l-3.3 4.1-13.2.1c-13.6.1-20.9.7-28.8 2.5-2.5.6-5.3 1.2-6.4 1.5-9.6 1.9-31.9 12.3-40.1 18.6-.5.5-3.3 2.6-6.1 4.7-7.6 6-18.6 17.2-22.4 23-.8 1.3-2.2 3.1-3.1 4.1-.8 1-2.3 3.3-3.3 5.2-1 1.8-4.1 4.7-7.1 6.5-13 8.1-25.4 19.3-35.3 31.9-1.8 2.3-3.2 4.5-3.2 4.8 0 .3-1.6 2.9-3.5 5.6-1.9 2.7-3.5 5.2-3.5 5.5 0 .3-1.2 3.1-2.7 6.2-1.5 3.2-2.8 6.1-2.9 6.5-.1.5-.3 1-.4 1.3-.1.3-.3.8-.4 1.2-.1.5-1.2 3.9-2.4 7.7-1.2 3.8-2 7.1-1.7 7.4.3.3.1 1-.5 1.7-.5.6-1.2 2.9-1.5 5-1 7-1.4 31.8-.5 36.5.4 2.5 1 5.8 1.3 7.5.9 5.8 5 19.1 7.8 25.2 1.5 3.5 2.5 6.3 2.3 6.3-.3 0 .4 1.3 1.6 2.9 1.2 1.8 3.1 7.7 4.5 14.3 5.5 26.1 17 47.7 34.7 64.8 8.1 7.9 10.1 9.5 17.8 14.7 20.4 13.7 44.1 21.3 67.1 21.5h6.7l1.8 3.9c1.1 2.1 2.2 3.9 2.7 3.9.4 0 .7.5.7 1 0 1.3 7.1 11 11.4 15.8 6.8 7.5 8.4 9 14.1 13.9 7.6 6.5 17 12.5 26.5 17 4.1 1.9 7.9 3.6 8.5 3.8.5.1 2.4.7 4 1.4 3.1 1.3 15.9 4.4 23 5.7 10.1 1.7 41.5.6 44.3-1.7.1-.1 1.1-.3 2.2-.4 1.1-.1 2.2-.4 2.5-.5.3-.1.8-.3 1.3-.4 1.9-.5 11-3.5 13.2-4.4 1.4-.5 3-1.1 3.5-1.2 1.7-.5 12.8-6.2 16.8-8.7l3.8-2.4 1.7 3.2c5.1 9.3 14.2 21.7 21.5 29.1 7.7 7.9 16.7 15.8 18.2 15.8.3 0 1.5.8 2.5 1.8 1.8 1.7 18.5 10.7 19.9 10.7 1.4 0 8.1 3.7 8.1 4.4 0 .4 1.1 2.1 2.5 3.7s2.5 3.5 2.5 4.1c0 .7.5 1.3 1 1.3.6 0 1 .7 1 1.5s.4 1.5.8 1.5 2.1 2.2 3.7 5c1.6 2.7 3.3 5 3.7 5 .4 0 .8.4.8.9 0 1.1 10.2 16.5 11.3 16.9.4.2.7 1 .7 1.8s.5 1.4 1 1.4c.6 0 1 .7 1 1.5s.5 1.5 1 1.5c.6 0 1 .5 1 1.1 0 .6 1.1 2.4 2.5 4.1 1.4 1.6 2.5 3.6 2.5 4.3 0 .7.4 1.5.9 1.7.6.1 5.3 6.8 10.5 14.8 5.3 8 10 15 10.5 15.7.6.6 2.4 3.4 4.1 6.2l3.2 5.1 2.6-1.7c1.5-1 3.6-2.3 4.7-3 16.2-9.7 17.2-10.5 16.9-13.7-.2-1.7-.6-5.8-.8-9.1-.3-3.3-.8-9.2-1.2-13-.4-3.9-.7-10.1-.8-13.9l-.1-6.9 3-.3c9.9-.8 22.3-6.9 30.3-15l5.4-5.3 4.6 2.3c9.3 4.7 22.7 7.9 33.2 7.9 5.4 0 14.6-1.2 17.2-2.2 1.2-.5 2.5-.9 2.8-.9 4.4-.3 15.7-5.6 23.2-10.8 5.3-3.7 17.8-16 17.8-17.5 0-.4.7-1.4 1.5-2.2 1.8-1.8 7.8-13.9 9.4-18.8 1.1-3.4 1.5-5.4 2.8-13.7.4-2.5 1-3.2 2.9-3.3 1.3-.1 2.7-.2 3.2-.3 8.7-2 13.1-3.4 19.7-6.4 4.4-2 8.2-3.9 8.5-4.2.3-.4 2.5-2 5-3.7 8.6-5.9 18.3-17.7 22.9-27.8 1.2-2.8 2.6-5.7 3-6.5.5-.9 1.2-3.1 1.6-5 .7-3.3 3.3-8.9 4.6-10 1.1-.9 8.6-17.4 10.2-22.5 7.2-22.6 8.2-44.7 3.2-67.7-.4-1.5-.1-5.3.5-8.5 3-16.1 3.2-35.1.6-48.3-.9-4.7-1.8-9.2-2-10-.2-.8-.6-2.2-.9-3-.3-.8-1.1-3.3-1.8-5.5-3-9.9-12.3-27.2-20-37-9.3-11.8-26.9-26.2-41.6-34.1-2.9-1.5-5.3-3.3-5.4-3.8-.3-5.1-5.3-19-9.2-26.1-.6-1.1-2.1-4-3.3-6.5-1.2-2.6-2.9-5.2-3.8-5.9-.9-.7-1.6-1.8-1.6-2.3 0-2.8-19.8-24.4-25.2-27.6-1.6-.9-2.8-2-2.8-2.4 0-.4-.6-.8-1.4-.8-.8 0-1.6-.4-1.8-.9-.1-.5-3.3-2.7-6.9-4.9-6.1-3.7-9.3-5.3-22.1-11-2.7-1.2-4.8-2.5-4.8-3s-.8-1.7-1.8-2.8c-1-1-2.5-2.9-3.4-4.2-.8-1.2-3.6-4.4-6-7-18.9-19.9-38.7-31.1-66.8-37.6-8.6-2-33.7-2.7-45.2-1.1-5.3.7-5.7.6-6.9-1.6-3.5-6.7-16.1-16.2-24.4-18.4-1.6-.5-3.7-1-4.5-1.2-1.6-.5-16.9-1-17.3-.7z"/></svg>